<svg version="1.1" id="Layer_1" xmlns="http://www.w3.org/2000/svg" xmlns:xlink="http://www.w3.org/1999/xlink" x="0px" y="0px"
	 width="100%" viewBox="0 0 597 418" enable-background="new 0 0 597 418" xml:space="preserve">
<path fill="#000000" opacity="1.000000" stroke="none" 
	d="
M411.000000,419.000000 
	C274.000031,419.000000 137.500061,419.000000 1.000073,419.000000 
	C1.000049,279.666718 1.000049,140.333466 1.000024,1.000148 
	C199.999878,1.000099 398.999756,1.000099 597.999756,1.000049 
	C597.999817,140.333191 597.999817,279.666382 597.999878,418.999786 
	C535.833313,419.000000 473.666656,419.000000 411.000000,419.000000 
M398.101501,187.117599 
	C398.101501,187.117599 398.096191,187.239899 398.720276,187.197372 
	C399.221375,186.863525 399.722473,186.529678 400.231659,186.156464 
	C400.231659,186.156464 400.240143,186.206970 400.953094,186.083633 
	C409.006897,181.754425 417.060730,177.425201 425.039703,173.029007 
	C425.039703,173.029007 425.076630,173.122421 425.743530,172.998474 
	C426.679749,172.375839 427.615936,171.753204 429.218292,171.030045 
	C456.195221,155.989182 481.777771,138.892776 505.697845,119.317566 
	C503.612762,119.922531 501.904602,121.114311 500.140594,122.216675 
	C491.202850,127.802185 482.442993,133.707947 473.257507,138.852905 
	C460.086273,146.230331 446.600739,153.046677 432.539856,160.234482 
	C430.234009,161.313324 427.928162,162.392151 425.548584,163.401947 
	C425.548584,163.401947 425.461060,163.452362 424.790680,163.719849 
	C414.682190,168.058243 404.573700,172.396652 393.767273,176.809555 
	C391.171448,177.886444 388.575592,178.963333 385.223602,180.034637 
	C374.490906,183.578918 363.758179,187.123199 352.771759,190.008545 
	C343.859375,188.299591 334.947021,186.590652 326.052765,184.957901 
	C326.052765,184.957901 326.094604,184.891708 325.847961,184.685043 
	C325.502289,184.605225 325.224396,184.711151 324.207764,184.959991 
	C323.134644,184.987076 322.061523,185.014175 320.435181,184.765015 
	C314.615906,183.461563 308.796661,182.158096 302.128723,180.855682 
	C298.756683,180.562149 295.384613,180.268600 291.434021,179.499084 
	C290.353058,178.607620 289.272095,177.716141 288.312286,176.924622 
	C289.947754,172.084900 291.475616,167.563507 293.183716,162.663315 
	C293.183716,162.663315 293.151489,162.245087 293.624359,162.022949 
	C293.697174,161.704178 293.769989,161.385422 294.028290,160.326401 
	C295.636749,156.823883 297.245209,153.321350 299.187561,149.589935 
	C299.352203,149.326553 299.339203,149.072235 299.382660,148.181671 
	C299.488800,147.979004 299.594971,147.776321 300.658661,147.732620 
	C304.771454,147.773071 308.884277,147.813522 313.827667,147.990829 
	C315.225494,147.960190 316.623322,147.929535 318.845703,148.055130 
	C320.240784,148.007233 321.635895,147.959335 323.817474,148.043488 
	C324.870575,147.982315 325.923645,147.921158 327.906982,148.005646 
	C335.237885,148.076263 342.568787,148.146896 349.711945,148.888245 
	C347.815125,153.771957 345.918335,158.655670 343.871246,163.926300 
	C356.424530,163.926300 368.208221,163.926300 380.820984,164.114365 
	C382.230469,164.047714 383.639923,163.981064 385.960083,164.106781 
	C391.101166,164.137253 396.291199,163.735779 401.370483,164.311447 
	C407.242157,164.976944 410.231079,162.890839 411.265686,157.112808 
	C411.723236,154.557449 413.303406,152.225037 414.080322,149.701035 
	C416.994324,140.233749 420.632446,130.883987 422.406006,121.198448 
	C424.500641,109.759262 415.761963,97.322365 403.599640,97.346512 
	C402.611969,96.883598 401.642120,96.064758 400.633759,96.014206 
	C392.752563,95.619064 384.863922,95.371483 376.059082,94.893349 
	C367.708801,94.968529 359.358551,95.043709 350.126160,94.930176 
	C347.424683,94.991455 344.723236,95.052742 341.208649,94.890129 
	C339.806702,94.930611 338.404785,94.971085 336.100006,94.854187 
	C333.038757,94.924660 329.977509,94.995132 326.140045,94.883049 
	C314.854767,94.948639 303.567627,94.923317 292.285919,95.159691 
	C290.136475,95.204735 288.008759,96.283966 285.980560,96.988922 
	C285.980560,96.988922 285.889404,96.869560 285.160553,96.896126 
	C274.059784,96.956947 264.981293,101.989265 255.914459,108.827820 
	C247.489166,115.226982 240.981232,123.124100 236.783142,133.145676 
	C236.783142,133.145676 236.796341,133.418274 236.232864,133.889893 
	C235.094604,136.836136 233.850891,139.746567 232.835770,142.734634 
	C227.597244,158.154633 222.417297,173.594528 216.945786,189.742493 
	C216.932571,190.498947 216.919373,191.255417 216.576385,192.655518 
	C216.536499,193.367477 216.496597,194.079437 216.146042,195.576324 
	C216.381638,199.210663 216.617233,202.845001 216.627747,207.148819 
	C216.397369,207.772644 216.166992,208.396469 215.247528,208.750763 
	C212.999695,208.145935 210.735107,207.596832 208.506653,206.927505 
	C189.166687,201.118805 178.057800,188.484787 178.610123,170.154510 
	C178.901611,160.480438 182.386688,150.901184 184.449722,141.283386 
	C184.756805,139.851791 185.173370,138.443680 185.539276,137.024719 
	C169.497772,147.959000 158.205414,162.103638 152.459259,179.937363 
	C148.704163,191.591583 148.358948,203.521179 155.784698,214.438446 
	C161.369461,222.649155 169.372452,227.510269 178.407074,230.827072 
	C197.731430,237.921448 217.764725,238.328598 238.654007,236.857590 
	C239.100006,236.768021 239.546021,236.678436 240.853363,236.738266 
	C253.666245,234.802856 266.664276,233.662399 279.245422,230.732132 
	C295.204712,227.015030 310.825500,221.844711 326.903442,217.310608 
	C326.903442,217.310608 327.105286,217.073547 327.824463,217.101212 
	C329.750946,216.396317 331.677429,215.691437 334.402374,214.956100 
	C340.260315,212.600662 346.118286,210.245224 352.651398,207.886902 
	C352.983917,207.615128 353.316437,207.343353 353.752594,207.242889 
	C353.752594,207.242889 353.928497,207.147247 354.595093,207.170547 
	C355.157532,206.862259 355.719940,206.553955 356.314972,206.253754 
	C356.314972,206.253754 356.348206,206.261490 357.075470,206.186050 
	C365.785736,202.230392 374.495972,198.274734 383.165009,194.305191 
	C383.165009,194.305191 383.214020,194.305725 383.931427,194.213623 
	C386.020630,193.177887 388.109863,192.142151 390.837128,191.079575 
	C391.560730,190.648987 392.284363,190.218399 393.670197,189.755615 
	C394.617706,189.214111 395.565186,188.672592 396.837891,188.154053 
	C396.837891,188.154053 397.025085,187.887161 397.547546,187.872925 
	C397.772736,187.625748 397.997925,187.378586 398.101501,187.117599 
M350.598480,217.134323 
	C346.480072,218.783463 342.361664,220.432602 337.262573,222.247055 
	C336.655945,222.513916 336.049347,222.780792 335.539581,222.991226 
	C335.539581,222.991226 335.480072,223.062424 334.693054,223.139084 
	C332.120972,224.076874 329.574158,225.092484 326.971985,225.937622 
	C319.654510,228.314209 312.314240,230.620636 304.171906,232.980103 
	C295.787659,235.072739 287.403442,237.165359 278.173340,239.295166 
	C277.659576,239.520813 277.145844,239.746460 276.494110,239.799881 
	C276.494110,239.799881 276.180786,240.037003 275.412689,239.979477 
	C274.912598,240.084351 274.412476,240.189209 273.500122,240.219223 
	C273.500122,240.219223 273.139313,240.432236 272.340332,240.433975 
	C265.552307,241.594040 258.764282,242.754105 251.260010,243.797607 
	C244.524261,244.279419 237.788513,244.761230 230.122879,245.125259 
	C225.744110,245.216843 221.365341,245.308441 216.198349,245.176666 
	C215.112808,245.206253 214.027283,245.235840 212.092545,245.083527 
	C202.278976,243.509262 192.283798,242.641632 182.698837,240.177917 
	C171.280060,237.242874 160.925095,231.902740 153.325089,222.215179 
	C147.587311,214.901337 145.483871,206.454895 144.871201,196.752151 
	C138.174362,211.891998 144.936798,231.340714 159.383484,239.964523 
	C172.799194,247.972916 187.650208,250.823822 203.908936,252.025040 
	C210.276886,251.961044 216.644821,251.897049 223.787231,251.997559 
	C224.830872,251.888840 225.874512,251.780121 227.695450,251.774017 
	C228.454514,251.615540 229.213562,251.457047 230.798126,251.497604 
	C235.864777,250.923584 240.931442,250.349564 246.783920,249.871338 
	C247.530914,249.654877 248.277924,249.438416 249.724060,249.340668 
	C251.130600,249.155014 252.537140,248.969360 254.767151,248.840530 
	C261.214294,247.467728 267.661469,246.094910 274.675232,244.819626 
	C274.991547,244.626144 275.307861,244.432663 276.411133,244.301743 
	C277.673187,243.979004 278.935211,243.656281 280.597961,243.459412 
	C280.965973,243.271606 281.334015,243.083801 281.842957,243.000351 
	C281.842957,243.000351 281.947174,242.859314 282.615479,242.957733 
	C283.669342,242.596390 284.723175,242.235046 285.867737,241.944290 
	C285.867737,241.944290 285.935181,241.851242 286.733551,241.906204 
	C290.478699,240.892120 294.223816,239.878052 298.753387,239.047089 
	C301.639954,239.381363 304.526550,239.715622 308.012695,240.613449 
	C309.362518,240.769745 310.712372,240.926056 312.405640,241.605499 
	C312.589691,242.394226 312.773773,243.182953 312.388062,244.361969 
	C311.921356,245.906036 311.454681,247.450104 311.001709,248.998764 
	C311.001709,248.998764 310.992096,248.984940 310.465485,249.434998 
	C308.044678,255.594788 305.829498,261.849030 303.070465,267.853394 
	C302.301117,269.527618 299.943878,271.538483 298.281708,271.568909 
	C283.874390,271.832397 269.458801,271.732239 255.048325,271.539612 
	C254.000229,271.525635 252.973145,269.939758 252.359070,268.472565 
	C253.568893,265.133423 254.778732,261.794281 256.100647,258.145782 
	C252.644058,258.145782 249.832153,258.145782 246.346786,257.993103 
	C245.891846,258.042572 245.436920,258.092041 244.083191,257.968292 
	C240.342438,258.289856 236.601669,258.611389 232.014923,258.958130 
	C230.038559,258.956604 228.062210,258.955109 225.598190,258.231201 
	C214.290314,258.142578 202.982330,258.009796 191.674774,258.040070 
	C190.649094,258.042786 188.982742,258.871582 188.698517,259.692352 
	C184.436462,272.000000 179.497360,284.165802 176.487244,296.787048 
	C173.736435,308.320984 179.788055,317.601776 190.927139,321.998047 
	C200.279724,325.689240 210.141235,325.344208 220.750534,325.094208 
	C221.829620,325.036896 222.908691,324.979553 224.907211,325.114960 
	C230.267731,325.047302 235.628250,324.979675 241.500443,325.070862 
	C241.673798,325.027771 241.847137,324.984680 242.937851,325.134979 
	C253.285385,325.054565 263.632904,324.974182 274.852997,325.086487 
	C277.230774,325.029114 279.608551,324.971741 282.908264,325.106415 
	C290.275787,325.037079 297.643280,324.967743 305.919739,325.087585 
	C314.935150,325.214813 323.794922,324.488892 332.780029,320.230743 
	C348.428406,313.943359 358.296539,302.085358 365.264465,286.433990 
	C367.928192,279.313263 370.591888,272.192505 373.701630,264.542206 
	C375.549225,259.382660 377.396851,254.223099 379.767059,248.567886 
	C381.573486,243.394241 383.379944,238.220596 385.682251,232.520035 
	C386.353424,230.144333 387.735718,227.715149 387.561798,225.403015 
	C387.048676,218.580734 385.919617,211.804779 385.702057,204.781372 
	C388.790741,203.189819 391.879395,201.598267 395.674377,199.853821 
	C402.592804,196.271317 409.664856,192.953247 416.393494,189.044067 
	C426.380127,183.242035 436.123535,177.021439 446.520721,170.869873 
	C447.058746,170.522461 447.596771,170.175034 448.134796,169.827621 
	C447.966187,169.634903 447.797577,169.442184 447.628967,169.249451 
	C447.093781,169.843887 446.558563,170.438324 445.278717,171.004501 
	C437.139893,175.383438 429.025238,179.808136 420.855835,184.129257 
	C411.516266,189.069290 402.127960,193.917160 392.068115,198.972717 
	C386.955627,201.536331 381.843109,204.099960 375.987976,206.782898 
	C368.681885,209.908432 361.375793,213.033966 353.168854,216.273834 
	C352.618073,216.522095 352.067322,216.770355 351.503113,216.880692 
	C351.503113,216.880692 351.379730,217.052094 350.598480,217.134323 
M507.495605,119.526848 
	C507.495605,119.526848 507.537231,119.498116 507.495605,119.526848 
z"/>
<path fill="#C15098" opacity="1.000000" stroke="none" 
	d="
M237.974808,236.748123 
	C217.764725,238.328598 197.731430,237.921448 178.407074,230.827072 
	C169.372452,227.510269 161.369461,222.649155 155.784698,214.438446 
	C148.358948,203.521179 148.704163,191.591583 152.459259,179.937363 
	C158.205414,162.103638 169.497772,147.959000 185.539276,137.024719 
	C185.173370,138.443680 184.756805,139.851791 184.449722,141.283386 
	C182.386688,150.901184 178.901611,160.480438 178.610123,170.154510 
	C178.057800,188.484787 189.166687,201.118805 208.506653,206.927505 
	C210.735107,207.596832 212.999695,208.145935 215.299377,209.106552 
	C211.234695,208.639664 207.118179,207.817001 202.737793,206.771851 
	C196.627762,202.545792 190.776566,198.549530 184.938141,194.534698 
	C182.892136,193.127747 180.988556,191.450027 178.788666,190.364792 
	C178.013168,189.982239 176.547791,190.998138 175.397385,191.375519 
	C175.908676,192.278137 176.350693,193.229874 176.947632,194.071762 
	C177.822662,195.305862 178.808609,196.461349 179.747284,197.650330 
	C174.245590,201.792892 175.277847,207.340012 176.432266,212.930054 
	C176.487717,213.198563 176.176285,213.531952 176.069107,213.846527 
	C174.682083,217.917740 177.103104,224.454269 180.291672,227.398773 
	C186.244202,232.895645 193.379517,234.058884 201.389465,234.077362 
	C208.856354,234.764252 215.932007,235.375626 223.471344,235.987900 
	C228.614960,236.241898 233.294876,236.495010 237.974808,236.748123 
z"/>
<path fill="#476EB3" opacity="1.000000" stroke="none" 
	d="
M364.810547,286.994904 
	C358.296539,302.085358 348.428406,313.943359 332.484741,319.905945 
	C332.573364,319.057159 332.884491,318.157745 333.352509,318.066956 
	C338.249603,317.116638 338.119629,313.556305 338.040894,309.748871 
	C337.896729,302.778687 338.173065,295.796997 337.919128,288.833069 
	C337.806274,285.738800 337.539886,282.289215 336.112366,279.672302 
	C332.025635,272.180511 327.643250,264.794373 322.699524,257.849060 
	C320.214478,254.357819 316.258850,251.913330 313.031708,248.659790 
	C313.049377,246.873276 313.003601,245.422485 312.957825,243.971680 
	C312.773773,243.182953 312.589691,242.394226 311.902588,241.113831 
	C310.070709,240.431396 308.741913,240.240646 307.413116,240.049881 
	C304.526550,239.715622 301.639954,239.381363 298.250366,238.673584 
	C298.295746,237.523453 298.684601,236.503250 299.424316,236.018784 
	C301.189117,234.862946 303.119476,233.959900 304.982941,232.954742 
	C312.314240,230.620636 319.654510,228.314209 326.971985,225.937622 
	C329.574158,225.092484 332.120972,224.076874 335.085144,223.085373 
	C335.477203,223.031662 335.442719,223.047653 335.442719,223.047668 
	C336.049347,222.780792 336.655945,222.513916 338.016449,222.246780 
	C339.165527,222.813156 339.560760,223.379791 339.592957,224.024704 
	C336.412048,225.047150 333.415039,225.652451 330.822235,227.022644 
	C327.690613,228.677597 324.901611,230.980850 321.794037,233.251465 
	C321.720886,234.125641 321.588470,234.979645 321.949768,235.343750 
	C326.998505,240.431961 332.154022,245.414185 337.205322,250.499893 
	C344.894043,258.240967 352.538635,266.026154 360.157532,273.835999 
	C361.295990,275.002991 361.938965,277.072876 363.249847,277.571320 
	C366.785583,278.915802 365.397919,280.881165 364.690857,283.141785 
	C364.328491,284.300323 364.745697,285.702728 364.810547,286.994904 
z"/>
<path fill="#4B76B9" opacity="1.000000" stroke="none" 
	d="
M312.968262,248.995483 
	C316.258850,251.913330 320.214478,254.357819 322.699524,257.849060 
	C327.643250,264.794373 332.025635,272.180511 336.112366,279.672302 
	C337.539886,282.289215 337.806274,285.738800 337.919128,288.833069 
	C338.173065,295.796997 337.896729,302.778687 338.040894,309.748871 
	C338.119629,313.556305 338.249603,317.116638 333.352509,318.066956 
	C332.884491,318.157745 332.573364,319.057159 332.108521,319.953217 
	C323.794922,324.488892 314.935150,325.214813 305.460388,324.770905 
	C305.001068,324.454224 304.997559,324.009949 305.418457,324.008118 
	C307.606781,323.903046 309.374146,323.799774 310.999451,323.704803 
	C310.999451,308.527710 311.044891,293.890472 310.943787,279.254272 
	C310.930695,277.354584 310.213013,275.446869 309.728516,273.566864 
	C309.210541,271.557007 307.918427,269.504059 308.124023,267.594818 
	C308.795471,261.360870 309.995453,255.183853 310.992096,248.984940 
	C310.992096,248.984940 311.001709,248.998764 311.325104,248.993774 
	C312.088409,248.991013 312.528351,248.993256 312.968262,248.995483 
z"/>
<path fill="#EF5F6F" opacity="1.000000" stroke="none" 
	d="
M351.008301,95.118889 
	C359.358551,95.043709 367.708801,94.968529 376.257050,95.239861 
	C375.636780,97.947113 374.131134,100.301270 374.108490,102.669624 
	C373.918335,122.534851 374.000275,142.402695 374.000275,162.623184 
	C375.243958,162.893677 377.617950,163.409988 379.991943,163.926300 
	C368.208221,163.926300 356.424530,163.926300 343.871246,163.926300 
	C345.918335,158.655670 347.815125,153.771957 350.052032,148.235580 
	C350.927795,145.573853 351.863220,143.578781 351.934174,141.553436 
	C352.390900,128.522354 352.767822,115.485657 352.890411,102.448166 
	C352.913330,100.011185 351.668213,97.562286 351.008301,95.118889 
z"/>
<path fill="#E64B9B" opacity="1.000000" stroke="none" 
	d="
M236.796356,133.418274 
	C236.796341,133.418274 236.783142,133.145676 237.243454,133.008377 
	C240.410278,129.373749 242.901413,125.678543 245.882660,122.433609 
	C248.989655,119.051819 252.569336,116.104309 256.156036,113.225388 
	C255.462723,118.388672 254.555695,123.293488 253.648651,128.198303 
	C254.070206,128.133423 254.491745,128.068527 254.913284,128.003647 
	C255.608719,130.885376 256.800568,133.747620 256.914673,136.652206 
	C257.442719,150.094238 257.671387,163.548050 258.005066,177.397842 
	C258.000275,178.865005 257.997681,179.931946 257.706848,181.172821 
	C251.938965,185.902084 246.459320,190.457443 240.543137,195.010162 
	C232.701660,194.955627 232.211868,194.455994 231.979416,187.223434 
	C231.921356,185.416794 231.997955,183.456253 231.332382,181.847961 
	C229.624939,177.722214 229.530090,174.036438 233.972977,170.559067 
	C232.495834,170.688370 232.035019,170.766052 231.574860,170.762268 
	C229.935806,170.748825 228.297012,170.707687 226.658112,170.677032 
	C227.288177,169.314728 227.941879,167.962753 228.543549,166.588013 
	C229.952576,163.368576 231.553391,160.211304 232.672195,156.892532 
	C233.881500,153.305298 234.565414,149.544266 235.610703,145.896942 
	C236.090302,144.223434 237.332855,142.667648 237.433685,141.010086 
	C237.586243,138.501694 237.043594,135.950989 236.796356,133.418274 
z"/>
<path fill="#D14C95" opacity="1.000000" stroke="none" 
	d="
M236.514618,133.654083 
	C237.043594,135.950989 237.586243,138.501694 237.433685,141.010086 
	C237.332855,142.667648 236.090302,144.223434 235.610703,145.896942 
	C234.565414,149.544266 233.881500,153.305298 232.672195,156.892532 
	C231.553391,160.211304 229.952576,163.368576 228.543549,166.588013 
	C227.941879,167.962753 227.288177,169.314728 226.658112,170.677032 
	C228.297012,170.707687 229.935806,170.748825 231.574860,170.762268 
	C232.035019,170.766052 232.495834,170.688370 233.972977,170.559067 
	C229.530090,174.036438 229.624939,177.722214 231.332382,181.847961 
	C231.997955,183.456253 231.921356,185.416794 231.979416,187.223434 
	C232.211868,194.455994 232.701660,194.955627 240.527618,195.372208 
	C239.816086,197.251053 238.583832,198.701736 237.571335,200.292297 
	C235.325897,203.819717 233.190720,207.417328 230.568405,210.990326 
	C222.082413,211.036057 220.301758,213.370255 222.356766,221.251465 
	C222.604935,222.203247 223.097214,223.088776 223.427887,224.022156 
	C224.288834,226.452377 223.580933,227.752167 220.849854,228.026093 
	C219.100174,228.201569 217.399429,228.864990 215.187027,229.436081 
	C218.041580,232.399612 223.566360,230.523514 223.007675,235.987000 
	C215.932007,235.375626 208.856354,234.764252 201.318878,233.697479 
	C200.571869,228.173721 200.319656,223.103241 199.991043,218.037689 
	C199.728882,213.996445 199.952454,210.118484 203.001663,206.994324 
	C207.118179,207.817001 211.234695,208.639664 215.643921,209.241318 
	C216.166992,208.396469 216.397369,207.772644 216.847015,206.978851 
	C217.214462,206.854324 217.375076,206.957428 217.507309,206.928925 
	C217.638351,206.900696 217.850113,206.727371 217.840057,206.638840 
	C217.391861,202.688232 216.923065,198.739944 216.456696,194.791397 
	C216.496597,194.079437 216.536499,193.367477 216.951355,192.139618 
	C217.289871,190.758301 217.253387,189.892899 217.216904,189.027481 
	C222.417297,173.594528 227.597244,158.154633 232.835770,142.734634 
	C233.850891,139.746567 235.094604,136.836136 236.514618,133.654083 
z"/>
<path fill="#F06964" opacity="1.000000" stroke="none" 
	d="
M380.406464,164.020325 
	C377.617950,163.409988 375.243958,162.893677 374.000275,162.623184 
	C374.000275,142.402695 373.918335,122.534851 374.108490,102.669624 
	C374.131134,100.301270 375.636780,97.947113 376.716309,95.332352 
	C384.863922,95.371483 392.752563,95.619064 400.633759,96.014206 
	C401.642120,96.064758 402.611969,96.883598 403.759186,97.699936 
	C403.918732,98.053360 403.796326,98.171310 403.405212,98.096313 
	C392.918274,95.521057 392.107086,96.213943 391.977142,106.325119 
	C391.734619,125.196320 391.355621,144.065765 390.637390,162.951218 
	C388.510712,163.282471 386.780060,163.598434 385.049408,163.914398 
	C383.639923,163.981064 382.230469,164.047714 380.406464,164.020325 
z"/>
<path fill="#ED4992" opacity="1.000000" stroke="none" 
	d="
M293.151489,162.245087 
	C293.151489,162.245087 293.183716,162.663315 292.837891,162.840683 
	C292.321472,163.013153 292.150879,163.008270 291.791748,162.718491 
	C289.734222,161.621735 287.865295,160.809875 285.997070,159.538116 
	C286.331848,149.010025 287.238312,138.917038 286.803467,128.882172 
	C286.501770,121.920441 289.970276,114.558044 285.200806,107.890999 
	C284.856293,107.409447 285.410339,106.319473 285.471771,105.506729 
	C285.661469,102.997200 285.814880,100.484932 285.963562,97.697311 
	C285.926270,97.237122 285.907837,97.053345 285.889404,96.869560 
	C285.889404,96.869560 285.980560,96.988922 286.381378,96.970291 
	C293.512238,96.637871 300.242279,96.324081 306.981934,96.477036 
	C307.641296,105.619293 308.291046,114.294807 308.901245,123.257568 
	C308.562347,124.028969 308.262939,124.513130 307.633179,125.126434 
	C306.897186,126.566658 306.491547,127.877739 306.032471,129.553284 
	C303.886414,135.803040 301.793793,141.688339 299.701172,147.573624 
	C299.594971,147.776321 299.488800,147.979004 299.116089,148.627747 
	C298.706818,149.322983 298.708191,149.571320 298.853668,149.818832 
	C297.245209,153.321350 295.636749,156.823883 293.768250,160.859528 
	C293.300934,161.639801 293.182037,161.923950 293.151489,162.245087 
z"/>
<path fill="#D73894" opacity="1.000000" stroke="none" 
	d="
M291.980286,163.003372 
	C292.150879,163.008270 292.321472,163.013153 292.747803,163.030090 
	C291.475616,167.563507 289.947754,172.084900 288.312286,176.924622 
	C289.272095,177.716141 290.353058,178.607620 291.358032,179.746613 
	C287.035370,183.637436 282.231445,186.816513 278.699982,191.055634 
	C275.223206,195.229172 271.273560,198.167145 266.672791,200.890228 
	C262.474091,203.375305 256.654144,204.210953 254.590561,210.202484 
	C246.476959,210.574127 238.743774,210.780212 231.010574,210.986313 
	C233.190720,207.417328 235.325897,203.819717 237.571335,200.292297 
	C238.583832,198.701736 239.816086,197.251053 240.964142,195.374847 
	C246.459320,190.457443 251.938965,185.902084 258.084351,181.336685 
	C270.723755,183.918304 285.253998,175.906265 291.980286,163.003372 
z"/>
<path fill="#EE5474" opacity="1.000000" stroke="none" 
	d="
M350.567230,95.024529 
	C351.668213,97.562286 352.913330,100.011185 352.890411,102.448166 
	C352.767822,115.485657 352.390900,128.522354 351.934174,141.553436 
	C351.863220,143.578781 350.927795,145.573853 350.145905,147.900223 
	C342.568787,148.146896 335.237885,148.076263 327.355957,147.612274 
	C326.580109,145.408600 325.817719,143.461334 326.237091,141.815125 
	C327.257263,137.810608 328.758972,133.921234 330.187164,130.029663 
	C333.704315,120.445900 337.324524,110.899826 340.813538,101.305977 
	C341.423462,99.628815 341.596405,97.792732 341.995239,95.801666 
	C342.019318,95.573296 342.021759,95.114021 342.021759,95.114029 
	C344.723236,95.052742 347.424683,94.991455 350.567230,95.024529 
z"/>
<path fill="#E64B9B" opacity="1.000000" stroke="none" 
	d="
M230.568405,210.990326 
	C238.743774,210.780212 246.476959,210.574127 255.054565,210.198318 
	C259.599487,210.013290 263.300049,209.997971 266.930725,210.326721 
	C264.186157,212.916992 261.511444,215.163177 258.792480,217.446518 
	C260.153534,222.133438 261.599915,227.114151 262.724487,232.310867 
	C257.822510,233.029495 253.210739,233.343277 248.673416,234.102219 
	C245.723526,234.595657 242.882065,235.737518 239.992020,236.588867 
	C239.546021,236.678436 239.100006,236.768021 238.314407,236.802856 
	C233.294876,236.495010 228.614960,236.241898 223.471344,235.987885 
	C223.566360,230.523514 218.041580,232.399612 215.187027,229.436081 
	C217.399429,228.864990 219.100174,228.201569 220.849854,228.026093 
	C223.580933,227.752167 224.288834,226.452377 223.427887,224.022156 
	C223.097214,223.088776 222.604935,222.203247 222.356766,221.251465 
	C220.301758,213.370255 222.082413,211.036057 230.568405,210.990326 
z"/>
<path fill="#75A3D5" opacity="1.000000" stroke="none" 
	d="
M240.988770,324.912018 
	C235.628250,324.979675 230.267731,325.047302 224.281311,324.641479 
	C223.436874,322.038300 223.035461,319.909271 223.028351,317.778900 
	C222.962921,298.183807 222.965759,278.588531 223.342041,258.978943 
	C224.518845,258.960938 225.302353,258.957275 226.085846,258.953613 
	C228.062210,258.955109 230.038559,258.956604 232.830887,258.960388 
	C234.433472,258.987122 235.220093,259.011597 236.013062,259.460571 
	C236.346268,264.831085 236.908997,269.774872 236.955048,274.723480 
	C237.084686,288.659882 237.009384,302.598267 236.997543,316.535889 
	C236.994614,319.978546 237.377182,323.206360 240.988770,324.912018 
z"/>
<path fill="#6894CB" opacity="1.000000" stroke="none" 
	d="
M273.980438,324.893768 
	C263.632904,324.974182 253.285385,325.054565 242.808777,324.822357 
	C249.998657,323.279663 249.999710,323.279663 250.000305,315.718323 
	C250.001251,303.287292 249.957504,290.855988 250.042664,278.425537 
	C250.057114,276.315125 250.622238,274.208496 251.401184,272.118103 
	C256.924042,272.416870 261.978729,272.697601 267.015259,273.404358 
	C266.671051,276.771332 266.025879,279.717712 266.075958,282.652283 
	C266.258759,293.361115 266.745941,304.064484 266.969025,314.773010 
	C267.073853,319.803284 267.482544,324.396454 273.980438,324.893768 
z"/>
<path fill="#517EC0" opacity="1.000000" stroke="none" 
	d="
M267.033386,272.978333 
	C261.978729,272.697601 256.924042,272.416870 251.386292,271.739319 
	C250.959274,270.590546 251.015366,269.838654 251.287659,269.080811 
	C251.503845,269.074921 251.936295,269.084686 251.936295,269.084686 
	C252.973145,269.939758 254.000229,271.525635 255.048325,271.539612 
	C269.458801,271.732239 283.874390,271.832397 298.281708,271.568909 
	C299.943878,271.538483 302.301117,269.527618 303.070465,267.853394 
	C305.829498,261.849030 308.044678,255.594788 310.728790,249.209961 
	C309.995453,255.183853 308.795471,261.360870 308.124023,267.594818 
	C307.918427,269.504059 309.210541,271.557007 309.728516,273.566864 
	C310.213013,275.446869 310.930695,277.354584 310.943787,279.254272 
	C311.044891,293.890472 310.999451,308.527710 310.999451,323.704803 
	C309.374146,323.799774 307.606781,323.903046 304.973145,324.005798 
	C301.576202,323.867523 299.045502,323.729736 296.990234,323.617828 
	C296.990234,307.596039 296.938232,292.410583 297.030884,277.226013 
	C297.051208,273.891754 295.549133,272.854523 292.477142,272.970337 
	C288.995392,273.101562 285.504974,273.001007 281.550354,272.996277 
	C276.399414,272.986969 271.716400,272.982666 267.033386,272.978333 
z"/>
<path fill="#EC7556" opacity="1.000000" stroke="none" 
	d="
M385.504761,164.010590 
	C386.780060,163.598434 388.510712,163.282471 391.038635,162.944046 
	C396.331299,162.272095 400.826660,161.622604 404.011627,161.162445 
	C404.011627,153.901138 402.842438,146.612564 404.346771,139.925415 
	C405.795380,133.485962 405.289093,127.701134 404.064667,121.569519 
	C403.429047,118.386765 403.444946,115.073906 403.111145,111.172470 
	C405.257874,109.901093 408.003021,108.275307 410.748199,106.649513 
	C410.513641,106.137268 410.279053,105.625031 410.044495,105.112785 
	C407.669128,105.489426 405.293762,105.866066 403.026764,106.225525 
	C403.307892,103.283112 403.552124,100.727211 403.796326,98.171310 
	C403.796326,98.171310 403.918732,98.053360 403.983490,97.998444 
	C415.761963,97.322365 424.500641,109.759262 422.406006,121.198448 
	C420.632446,130.883987 416.994324,140.233749 414.080322,149.701035 
	C413.303406,152.225037 411.723236,154.557449 411.265686,157.112808 
	C410.231079,162.890839 407.242157,164.976944 401.370483,164.311447 
	C396.291199,163.735779 391.101166,164.137253 385.504761,164.010590 
z"/>
<path fill="#355DA9" opacity="1.000000" stroke="none" 
	d="
M321.964325,233.003525 
	C324.901611,230.980850 327.690613,228.677597 330.822235,227.022644 
	C333.415039,225.652451 336.412048,225.047150 339.848114,224.038269 
	C340.636169,223.978134 340.806061,223.982712 341.049072,224.330826 
	C342.460022,226.066544 343.575684,227.825363 345.171234,228.792068 
	C356.473846,235.640213 367.874817,242.326004 379.244446,249.063538 
	C377.396851,254.223099 375.549225,259.382660 373.122711,264.840088 
	C370.979156,264.673370 369.217285,264.515900 367.898224,263.668854 
	C366.123108,262.528992 364.806793,260.696655 363.088745,259.442017 
	C356.007324,254.270782 349.021576,248.937668 341.665375,244.182816 
	C335.334656,240.090820 328.548889,236.702805 321.964325,233.003525 
z"/>
<path fill="#7DA9DA" opacity="1.000000" stroke="none" 
	d="
M222.948730,258.993286 
	C222.965759,278.588531 222.962921,298.183807 223.028351,317.778900 
	C223.035461,319.909271 223.436874,322.038300 223.821594,324.545105 
	C222.908691,324.979553 221.829620,325.036896 220.013046,324.788696 
	C216.176590,324.322510 213.077606,324.161865 209.985016,323.532471 
	C209.652237,301.716888 209.313065,280.370117 209.439987,259.013000 
	C214.253632,258.999512 218.601181,258.996399 222.948730,258.993286 
z"/>
<path fill="#91B6DE" opacity="1.000000" stroke="none" 
	d="
M209.978638,324.001221 
	C213.077606,324.161865 216.176590,324.322510 219.619507,324.684387 
	C210.141235,325.344208 200.279724,325.689240 190.927139,321.998047 
	C179.788055,317.601776 173.736435,308.320984 176.487244,296.787048 
	C179.497360,284.165802 184.436462,272.000000 188.698517,259.692352 
	C188.982742,258.871582 190.649094,258.042786 191.674774,258.040070 
	C202.982330,258.009796 214.290314,258.142578 225.842010,258.592407 
	C225.302353,258.957275 224.518845,258.960938 223.342041,258.978943 
	C218.601181,258.996399 214.253632,258.999512 208.984009,259.002899 
	C203.782394,259.347900 199.446503,259.375671 195.238770,260.124023 
	C190.776321,260.917694 189.452881,264.912903 191.994949,268.531830 
	C192.630432,269.436493 193.438019,270.521698 193.436371,271.522705 
	C193.426910,277.254761 193.130325,282.985718 193.065842,288.718567 
	C193.022995,292.526825 193.378326,296.343933 193.240082,300.145630 
	C193.086975,304.356415 193.345444,308.822113 192.003571,312.682831 
	C190.641388,316.601990 191.531174,319.164398 194.747238,320.294128 
	C199.653107,322.017426 204.885117,322.812195 209.978638,324.001221 
z"/>
<path fill="#6F9CD2" opacity="1.000000" stroke="none" 
	d="
M251.071457,269.086731 
	C251.015366,269.838654 250.959274,270.590546 250.918076,271.721283 
	C250.622238,274.208496 250.057114,276.315125 250.042664,278.425537 
	C249.957504,290.855988 250.001251,303.287292 250.000305,315.718323 
	C249.999710,323.279663 249.998657,323.279663 242.350098,324.725677 
	C241.847137,324.984680 241.673798,325.027771 241.244598,324.991455 
	C237.377182,323.206360 236.994614,319.978546 236.997543,316.535889 
	C237.009384,302.598267 237.084686,288.659882 236.955048,274.723480 
	C236.908997,269.774872 236.346268,264.831085 236.446136,259.448364 
	C239.575897,258.721588 242.278946,258.431549 244.981979,258.141479 
	C245.436920,258.092041 245.891846,258.042572 246.868240,258.328308 
	C247.900833,260.364258 248.347610,262.087830 248.940598,263.759552 
	C249.579483,265.560608 250.355347,267.313080 251.071457,269.086731 
z"/>
<path fill="#5885C3" opacity="1.000000" stroke="none" 
	d="
M282.018311,273.001221 
	C285.504974,273.001007 288.995392,273.101562 292.477142,272.970337 
	C295.549133,272.854523 297.051208,273.891754 297.030884,277.226013 
	C296.938232,292.410583 296.990234,307.596039 296.990234,323.617828 
	C299.045502,323.729736 301.576202,323.867523 304.552246,324.007629 
	C304.997559,324.009949 305.001068,324.454224 305.005920,324.676331 
	C297.643280,324.967743 290.275787,325.037079 282.307892,324.676422 
	C281.811127,307.164703 281.914703,290.082947 282.018311,273.001221 
z"/>
<path fill="#608CC6" opacity="1.000000" stroke="none" 
	d="
M281.550354,272.996277 
	C281.914703,290.082947 281.811127,307.164703 281.846924,324.580383 
	C279.608551,324.971741 277.230774,325.029114 274.416718,324.990112 
	C267.482544,324.396454 267.073853,319.803284 266.969025,314.773010 
	C266.745941,304.064484 266.258759,293.361115 266.075958,282.652283 
	C266.025879,279.717712 266.671051,276.771332 267.015259,273.404358 
	C271.716400,272.982666 276.399414,272.986969 281.550354,272.996277 
z"/>
<path fill="#254590" opacity="1.000000" stroke="none" 
	d="
M379.505737,248.815704 
	C367.874817,242.326004 356.473846,235.640213 345.171234,228.792068 
	C343.575684,227.825363 342.460022,226.066544 341.321899,224.108521 
	C346.009583,221.375809 350.497620,219.208939 355.004944,217.039490 
	C355.024261,217.036942 355.041382,217.001877 355.333984,216.963898 
	C356.137970,216.642807 356.649292,216.359711 357.543945,216.075348 
	C358.948608,216.045959 359.969940,216.017838 361.149323,216.304993 
	C365.219635,219.336746 368.793732,223.179382 373.130646,224.481812 
	C378.434174,226.074524 381.538361,229.701981 385.186371,233.046951 
	C383.379944,238.220596 381.573486,243.394241 379.505737,248.815704 
z"/>
<path fill="#91B6DE" opacity="1.000000" stroke="none" 
	d="
M202.985672,251.842728 
	C187.650208,250.823822 172.799194,247.972916 159.383484,239.964523 
	C144.936798,231.340714 138.174362,211.891998 144.871201,196.752151 
	C145.483871,206.454895 147.587311,214.901337 153.325089,222.215179 
	C160.925095,231.902740 171.280060,237.242874 182.698837,240.177917 
	C192.283798,242.641632 202.278976,243.509262 212.147842,245.341064 
	C206.431808,245.985031 200.660477,246.371460 194.889160,246.757904 
	C194.914474,247.188354 194.939789,247.618820 194.965118,248.049271 
	C197.638641,249.313766 200.312149,250.578247 202.985672,251.842728 
z"/>
<path fill="#3E64AE" opacity="1.000000" stroke="none" 
	d="
M321.794037,233.251465 
	C328.548889,236.702805 335.334656,240.090820 341.665375,244.182816 
	C349.021576,248.937668 356.007324,254.270782 363.088745,259.442017 
	C364.806793,260.696655 366.123108,262.528992 367.898224,263.668854 
	C369.217285,264.515900 370.979156,264.673370 372.899719,265.104858 
	C370.591888,272.192505 367.928192,279.313263 365.037506,286.714447 
	C364.745697,285.702728 364.328491,284.300323 364.690857,283.141785 
	C365.397919,280.881165 366.785583,278.915802 363.249847,277.571320 
	C361.938965,277.072876 361.295990,275.002991 360.157532,273.835999 
	C352.538635,266.026154 344.894043,258.240967 337.205322,250.499893 
	C332.154022,245.414185 326.998505,240.431961 321.949768,235.343750 
	C321.588470,234.979645 321.720886,234.125641 321.794037,233.251465 
z"/>
<path fill="#C73675" opacity="1.000000" stroke="none" 
	d="
M267.000580,209.982651 
	C263.300049,209.997971 259.599487,210.013290 255.434967,210.032776 
	C256.654144,204.210953 262.474091,203.375305 266.672791,200.890228 
	C271.273560,198.167145 275.223206,195.229172 278.699982,191.055634 
	C282.231445,186.816513 287.035370,183.637436 291.647339,179.984589 
	C295.384613,180.268600 298.756683,180.562149 302.770599,181.136871 
	C305.406738,183.541046 305.564911,185.394424 302.709045,186.937256 
	C301.871307,187.389832 300.776611,187.931030 300.462769,188.701645 
	C297.425110,196.160095 290.138550,198.322952 284.158966,202.174194 
	C282.112793,203.492065 280.586670,205.617447 278.523346,207.528076 
	C274.482666,208.449051 270.741638,209.215851 267.000580,209.982651 
z"/>
<path fill="#E5814C" opacity="1.000000" stroke="none" 
	d="
M433.249359,160.102570 
	C446.600739,153.046677 460.086273,146.230331 473.257507,138.852905 
	C482.442993,133.707947 491.202850,127.802185 500.140594,122.216675 
	C501.904602,121.114311 503.612762,119.922531 505.697845,119.317566 
	C481.777771,138.892776 456.195221,155.989182 428.499847,171.076813 
	C426.879822,171.789856 425.978241,172.456146 425.076630,173.122437 
	C425.076630,173.122421 425.039703,173.029007 424.694336,173.004242 
	C420.679474,171.189575 421.697083,168.889313 423.587006,166.426285 
	C424.297241,165.500641 424.841278,164.447418 425.461060,163.452362 
	C425.461060,163.452362 425.548584,163.401947 425.964966,163.551056 
	C428.670715,162.500946 430.960022,161.301758 433.249359,160.102570 
z"/>
<path fill="#EF5F6F" opacity="1.000000" stroke="none" 
	d="
M383.206238,194.319092 
	C374.495972,198.274734 365.785736,202.230392 356.553528,205.877655 
	C355.462616,203.926163 354.178772,202.144745 354.464691,200.667053 
	C355.192566,196.904739 353.638885,194.663879 350.977966,192.660034 
	C351.834320,191.853348 352.429901,191.260406 353.025482,190.667480 
	C363.758179,187.123199 374.490906,183.578918 385.426941,180.320679 
	C384.121826,181.828827 382.405182,182.871735 381.158752,184.319489 
	C379.674866,186.042984 377.214355,188.586716 377.671295,189.920685 
	C378.314514,191.798462 381.250610,192.890854 383.206238,194.319092 
z"/>
<path fill="#EA5083" opacity="1.000000" stroke="none" 
	d="
M327.105286,217.073547 
	C327.105286,217.073547 326.903442,217.310608 326.332947,217.276794 
	C319.830322,218.840500 313.898193,220.438034 307.996521,221.647659 
	C308.870758,218.749908 309.838654,216.273682 310.529785,213.722473 
	C311.614410,209.718597 311.303680,206.106354 307.281250,203.778610 
	C310.061218,202.868134 312.560272,202.184326 315.475342,201.408447 
	C321.579407,200.142578 327.267365,198.968781 332.964661,198.228027 
	C333.145233,202.677200 329.939911,207.214142 335.200104,210.155670 
	C333.115540,211.933563 327.549530,209.259094 329.771179,215.251099 
	C328.732605,215.990524 327.918945,216.532043 327.105286,217.073547 
z"/>
<path fill="#822746" opacity="1.000000" stroke="none" 
	d="
M307.963562,124.997284 
	C308.262939,124.513130 308.562347,124.028969 309.133118,123.007660 
	C310.252106,120.858559 311.008179,119.190041 311.963348,117.644577 
	C315.859070,111.341522 319.815674,105.076126 324.052063,98.992554 
	C324.653809,100.489418 325.534454,101.992897 325.162811,103.060356 
	C321.520325,113.522507 317.245239,123.785782 314.089142,134.385239 
	C312.854034,138.533203 309.255615,143.080917 312.997070,147.853973 
	C308.884277,147.813522 304.771454,147.773071 300.179932,147.653122 
	C301.793793,141.688339 303.886414,135.803040 306.285217,129.329071 
	C307.048798,127.492699 307.506195,126.244987 307.963562,124.997284 
z"/>
<path fill="#223267" opacity="1.000000" stroke="none" 
	d="
M385.434326,232.783493 
	C381.538361,229.701981 378.434174,226.074524 373.130646,224.481812 
	C368.793732,223.179382 365.219635,219.336746 361.406677,216.067383 
	C366.976044,212.964279 372.446167,210.414062 378.268585,207.831055 
	C380.757782,206.869080 382.894684,205.939880 385.031555,205.010696 
	C385.919617,211.804779 387.048676,218.580734 387.561798,225.403015 
	C387.735718,227.715149 386.353424,230.144333 385.434326,232.783493 
z"/>
<path fill="#9D2F55" opacity="1.000000" stroke="none" 
	d="
M313.412354,147.922394 
	C309.255615,143.080917 312.854034,138.533203 314.089142,134.385239 
	C317.245239,123.785782 321.520325,113.522507 325.162811,103.060356 
	C325.534454,101.992897 324.653809,100.489418 324.233002,98.750206 
	C324.699890,97.525871 325.288055,96.739594 326.083374,95.848831 
	C326.542023,95.557678 326.750610,95.331436 326.916260,95.065605 
	C329.977509,94.995132 333.038757,94.924660 336.548767,95.174896 
	C336.997498,95.495598 337.013733,95.979416 337.002350,95.990738 
	C336.990967,96.002068 336.969604,96.026062 336.640991,96.111404 
	C334.553589,99.468742 332.492035,102.618073 331.105316,106.040794 
	C328.887085,111.515854 326.930176,117.115257 325.201050,122.765610 
	C322.651886,131.095673 320.399780,139.516632 318.021149,147.898880 
	C316.623322,147.929535 315.225494,147.960190 313.412354,147.922394 
z"/>
<path fill="#EE5474" opacity="1.000000" stroke="none" 
	d="
M329.996124,215.053192 
	C327.549530,209.259094 333.115540,211.933563 335.200104,210.155670 
	C329.939911,207.214142 333.145233,202.677200 333.261536,198.022675 
	C339.271790,195.880783 344.994446,194.377274 350.717133,192.873764 
	C353.638885,194.663879 355.192566,196.904739 354.464691,200.667053 
	C354.178772,202.144745 355.462616,203.926163 356.189911,205.915375 
	C356.348206,206.261490 356.314972,206.253754 355.968140,206.247574 
	C355.057037,206.543350 354.492767,206.845291 353.928497,207.147247 
	C353.928497,207.147247 353.752594,207.242889 353.402588,207.253693 
	C352.693787,207.472931 352.335022,207.681366 351.976257,207.889786 
	C346.118286,210.245224 340.260315,212.600662 333.648743,214.953888 
	C331.928802,214.985504 330.962463,215.019348 329.996124,215.053192 
z"/>
<path fill="#9D2F55" opacity="1.000000" stroke="none" 
	d="
M315.059296,201.500519 
	C312.560272,202.184326 310.061218,202.868134 306.859741,203.788391 
	C301.441864,204.670898 296.726379,205.316925 292.014496,205.585907 
	C292.837769,203.713837 293.294342,201.704071 294.545868,200.821243 
	C298.170654,198.264297 302.106140,196.145432 305.935883,193.882019 
	C310.945251,190.921371 315.970154,187.986954 320.988403,185.041260 
	C322.061523,185.014175 323.134644,184.987076 324.883362,184.976303 
	C325.737549,184.958969 325.916077,184.925339 326.094604,184.891708 
	C326.094604,184.891708 326.052765,184.957901 326.280518,185.155914 
	C327.955261,186.443863 329.402283,187.533783 331.381744,189.024734 
	C325.779724,192.521027 320.986786,195.410629 316.338104,198.516190 
	C315.583893,199.020050 315.469452,200.481613 315.059296,201.500519 
z"/>
<path fill="#B43664" opacity="1.000000" stroke="none" 
	d="
M320.711792,184.903137 
	C315.970154,187.986954 310.945251,190.921371 305.935883,193.882019 
	C302.106140,196.145432 298.170654,198.264297 294.545868,200.821243 
	C293.294342,201.704071 292.837769,203.713837 291.709778,205.690933 
	C290.606354,206.495514 289.811157,206.818008 288.559753,207.112732 
	C285.010010,207.181274 281.916504,207.277588 278.822968,207.373901 
	C280.586670,205.617447 282.112793,203.492065 284.158966,202.174194 
	C290.138550,198.322952 297.425110,196.160095 300.462769,188.701645 
	C300.776611,187.931030 301.871307,187.389832 302.709045,186.937256 
	C305.564911,185.394424 305.406738,183.541046 303.194946,181.136353 
	C308.796661,182.158096 314.615906,183.461563 320.711792,184.903137 
z"/>
<path fill="#EC7556" opacity="1.000000" stroke="none" 
	d="
M425.125854,163.586105 
	C424.841278,164.447418 424.297241,165.500641 423.587006,166.426285 
	C421.697083,168.889313 420.679474,171.189575 424.731781,173.037735 
	C417.060730,177.425201 409.006897,181.754425 400.695374,185.834900 
	C404.162415,182.664383 399.476257,179.432571 401.551422,176.018311 
	C398.651154,176.311646 396.558197,176.523346 394.465210,176.735046 
	C404.573700,172.396652 414.682190,168.058243 425.125854,163.586105 
z"/>
<path fill="#822746" opacity="1.000000" stroke="none" 
	d="
M315.475342,201.408447 
	C315.469452,200.481613 315.583893,199.020050 316.338104,198.516190 
	C320.986786,195.410629 325.779724,192.521027 331.381744,189.024734 
	C329.402283,187.533783 327.955261,186.443863 326.271423,185.117828 
	C334.947021,186.590652 343.859375,188.299591 352.898621,190.338013 
	C352.429901,191.260406 351.834320,191.853348 350.977966,192.660034 
	C344.994446,194.377274 339.271790,195.880783 333.252228,197.589630 
	C327.267365,198.968781 321.579407,200.142578 315.475342,201.408447 
z"/>
<path fill="#F06964" opacity="1.000000" stroke="none" 
	d="
M394.116241,176.772293 
	C396.558197,176.523346 398.651154,176.311646 401.551422,176.018311 
	C399.476257,179.432571 404.162415,182.664383 400.338867,185.896576 
	C400.240143,186.206970 400.231659,186.156464 399.914154,186.190277 
	C399.096497,186.562683 398.596344,186.901291 398.096191,187.239899 
	C398.096191,187.239899 398.101501,187.117599 397.936401,187.207138 
	C397.480499,187.440369 397.231750,187.637192 397.025085,187.887161 
	C397.025085,187.887161 396.837891,188.154053 396.310242,188.129089 
	C394.857727,188.665344 393.932831,189.226578 393.007965,189.787811 
	C392.284363,190.218399 391.560730,190.648987 390.121399,191.090546 
	C387.341797,192.169601 385.277924,193.237671 383.214020,194.305725 
	C383.214020,194.305725 383.165009,194.305191 383.185608,194.312134 
	C381.250610,192.890854 378.314514,191.798462 377.671295,189.920685 
	C377.214355,188.586716 379.674866,186.042984 381.158752,184.319489 
	C382.405182,182.871735 384.121826,181.828827 385.805054,180.323456 
	C388.575592,178.963333 391.171448,177.886444 394.116241,176.772293 
z"/>
<path fill="#C73675" opacity="1.000000" stroke="none" 
	d="
M341.971191,96.030052 
	C341.596405,97.792732 341.423462,99.628815 340.813538,101.305977 
	C337.324524,110.899826 333.704315,120.445900 330.187164,130.029663 
	C328.758972,133.921234 327.257263,137.810608 326.237091,141.815125 
	C325.817719,143.461334 326.580109,145.408600 326.890869,147.539459 
	C325.923645,147.921158 324.870575,147.982315 323.303650,147.643814 
	C322.411285,145.096207 321.157349,142.632553 321.799286,140.852722 
	C325.381134,130.921753 329.643066,121.235764 333.211731,111.300529 
	C334.974701,106.392365 335.748322,101.128807 336.969604,96.026062 
	C336.969604,96.026062 336.990967,96.002068 337.415649,96.001358 
	C339.217285,96.010452 340.594238,96.020256 341.971191,96.030052 
z"/>
<path fill="#B43664" opacity="1.000000" stroke="none" 
	d="
M336.640961,96.111404 
	C335.748322,101.128807 334.974701,106.392365 333.211731,111.300529 
	C329.643066,121.235764 325.381134,130.921753 321.799286,140.852722 
	C321.157349,142.632553 322.411285,145.096207 322.910400,147.577789 
	C321.635895,147.959335 320.240784,148.007233 318.433411,147.977005 
	C320.399780,139.516632 322.651886,131.095673 325.201050,122.765610 
	C326.930176,117.115257 328.887085,111.515854 331.105316,106.040794 
	C332.492035,102.618073 334.553589,99.468742 336.640961,96.111404 
z"/>
<path fill="#608CC6" opacity="1.000000" stroke="none" 
	d="
M276.632080,239.972107 
	C277.145844,239.746460 277.659576,239.520813 278.657471,239.569489 
	C280.076782,240.848969 281.011993,241.854141 281.947174,242.859314 
	C281.947174,242.859314 281.842957,243.000351 281.573547,242.955414 
	C280.935211,243.051514 280.566223,243.192520 280.197266,243.333557 
	C278.935211,243.656281 277.673187,243.979004 275.744263,244.283630 
	C274.754486,244.417709 274.431549,244.569901 274.108612,244.722107 
	C267.661469,246.094910 261.214294,247.467728 254.091187,248.642578 
	C251.951782,248.703735 250.488342,248.962845 249.024918,249.221939 
	C248.277924,249.438416 247.530914,249.654877 246.298370,249.539444 
	C245.023209,247.817764 243.788528,246.446716 246.678329,245.844971 
	C248.499374,245.465790 250.213943,244.575317 251.976257,243.914185 
	C258.764282,242.754105 265.552307,241.594040 272.833008,240.505066 
	C273.584869,240.622757 273.780457,240.528732 273.912384,240.294067 
	C274.412476,240.189209 274.912598,240.084351 275.873474,240.017975 
	C276.334229,240.056458 276.632080,239.972107 276.632080,239.972107 
z"/>
<path fill="#C15098" opacity="1.000000" stroke="none" 
	d="
M307.966034,222.035553 
	C313.898193,220.438034 319.830322,218.840500 326.177368,217.272003 
	C310.825500,221.844711 295.204712,227.015030 279.245422,230.732132 
	C266.664276,233.662399 253.666245,234.802856 240.422699,236.663574 
	C242.882065,235.737518 245.723526,234.595657 248.673416,234.102219 
	C253.210739,233.343277 257.822510,233.029495 263.137024,232.287018 
	C273.245148,230.046356 282.618896,228.045547 292.396362,226.040817 
	C297.855377,224.703110 302.910706,223.369324 307.966034,222.035553 
z"/>
<path fill="#223267" opacity="1.000000" stroke="none" 
	d="
M392.760834,198.805054 
	C402.127960,193.917160 411.516266,189.069290 420.855835,184.129257 
	C429.025238,179.808136 437.139893,175.383438 445.638977,171.004059 
	C445.999268,171.003601 445.970490,170.979019 445.970490,170.979019 
	C436.123535,177.021439 426.380127,183.242035 416.393494,189.044067 
	C409.664856,192.953247 402.592804,196.271317 395.108826,199.689804 
	C393.949127,199.285538 393.354980,199.045303 392.760834,198.805054 
z"/>
<path fill="#7DA9DA" opacity="1.000000" stroke="none" 
	d="
M203.447296,251.933884 
	C200.312149,250.578247 197.638641,249.313766 194.965118,248.049271 
	C194.939789,247.618820 194.914474,247.188354 194.889160,246.757904 
	C200.660477,246.371460 206.431808,245.985031 212.572449,245.432007 
	C214.027283,245.235840 215.112808,245.206253 216.592010,245.684052 
	C216.332870,251.119873 219.547897,251.230865 223.008209,251.231140 
	C223.003555,251.431778 223.012772,251.833038 223.012772,251.833038 
	C216.644821,251.897049 210.276886,251.961044 203.447296,251.933884 
z"/>
<path fill="#75A3D5" opacity="1.000000" stroke="none" 
	d="
M223.012863,251.030518 
	C219.547897,251.230865 216.332870,251.119873 216.986130,245.795731 
	C221.365341,245.308441 225.744110,245.216843 230.878418,245.365341 
	C232.675552,246.416672 233.717148,247.227936 234.758743,248.039200 
	C233.665878,248.746460 232.565140,249.441925 231.483582,250.166077 
	C230.961304,250.515762 230.475143,250.919373 229.972626,251.298569 
	C229.213562,251.457047 228.454514,251.615540 227.019501,251.553619 
	C225.233337,251.232315 224.123093,251.131424 223.012863,251.030518 
z"/>
<path fill="#517EC0" opacity="1.000000" stroke="none" 
	d="
M282.281311,242.908524 
	C281.011993,241.854141 280.076782,240.848969 279.080383,239.550903 
	C287.403442,237.165359 295.787659,235.072739 304.577423,232.967438 
	C303.119476,233.959900 301.189117,234.862946 299.424316,236.018784 
	C298.684601,236.503250 298.295746,237.523453 297.858154,238.582031 
	C294.223816,239.878052 290.478699,240.892120 286.285950,241.822083 
	C285.838348,241.737976 285.626526,241.654800 285.626526,241.654800 
	C285.626526,241.654800 285.777039,241.873688 285.777039,241.873688 
	C284.723175,242.235046 283.669342,242.596390 282.281311,242.908524 
z"/>
<path fill="#6894CB" opacity="1.000000" stroke="none" 
	d="
M230.385376,251.398087 
	C230.475143,250.919373 230.961304,250.515762 231.483582,250.166077 
	C232.565140,249.441925 233.665878,248.746460 234.758743,248.039200 
	C233.717148,247.227936 232.675552,246.416672 231.343353,245.424225 
	C237.788513,244.761230 244.524261,244.279419 251.618134,243.855896 
	C250.213943,244.575317 248.499374,245.465790 246.678329,245.844971 
	C243.788528,246.446716 245.023209,247.817764 245.905457,249.491547 
	C240.931442,250.349564 235.864777,250.923584 230.385376,251.398087 
z"/>
<path fill="#D14C95" opacity="1.000000" stroke="none" 
	d="
M255.942337,112.966919 
	C252.569336,116.104309 248.989655,119.051819 245.882660,122.433609 
	C242.901413,125.678543 240.410278,129.373749 237.362274,132.941269 
	C240.981232,123.124100 247.489166,115.226982 256.367157,108.831360 
	C256.819855,108.834908 257.117645,109.123619 257.021240,109.443573 
	C256.597351,110.831329 256.269836,111.899124 255.942337,112.966919 
z"/>
<path fill="#D14C95" opacity="1.000000" stroke="none" 
	d="
M326.528137,94.974327 
	C326.750610,95.331436 326.542023,95.557678 325.711304,95.699570 
	C319.078827,95.773293 313.025574,95.891792 306.972321,96.010300 
	C300.242279,96.324081 293.512238,96.637871 286.326599,96.918854 
	C288.008759,96.283966 290.136475,95.204735 292.285919,95.159691 
	C303.567627,94.923317 314.854767,94.948639 326.528137,94.974327 
z"/>
<path fill="#D14C95" opacity="1.000000" stroke="none" 
	d="
M285.524963,96.882843 
	C285.907837,97.053345 285.926270,97.237122 285.547028,97.701180 
	C277.391937,100.904671 269.623535,103.799225 261.885986,106.774071 
	C260.238892,107.407326 258.704163,108.332787 257.117645,109.123619 
	C257.117645,109.123619 256.819855,108.834908 256.671265,108.690117 
	C264.981293,101.989265 274.059784,96.956947 285.524963,96.882843 
z"/>
<path fill="#355DA9" opacity="1.000000" stroke="none" 
	d="
M377.916260,207.863831 
	C372.446167,210.414062 366.976044,212.964279 361.248596,215.752106 
	C359.969940,216.017838 358.948608,216.045959 357.241577,216.099182 
	C356.051025,216.416809 355.546204,216.709351 355.041382,217.001892 
	C355.041382,217.001877 355.024261,217.036942 354.833313,216.912735 
	C354.419098,216.608337 354.228210,216.398651 354.069702,216.159485 
	C361.375793,213.033966 368.681885,209.908432 376.573639,206.907990 
	C377.411621,207.309998 377.663940,207.586914 377.916260,207.863831 
z"/>
<path fill="#6894CB" opacity="1.000000" stroke="none" 
	d="
M251.287659,269.080811 
	C250.355347,267.313080 249.579483,265.560608 248.940598,263.759552 
	C248.347610,262.087830 247.900833,260.364258 247.204971,258.404663 
	C249.832153,258.145782 252.644058,258.145782 256.100647,258.145782 
	C254.778732,261.794281 253.568893,265.133423 252.147675,268.778625 
	C251.936295,269.084686 251.503845,269.074921 251.287659,269.080811 
z"/>
<path fill="#254590" opacity="1.000000" stroke="none" 
	d="
M378.268585,207.831055 
	C377.663940,207.586914 377.411621,207.309998 376.944946,206.848328 
	C381.843109,204.099960 386.955627,201.536331 392.414490,198.888885 
	C393.354980,199.045303 393.949127,199.285538 394.755676,199.766235 
	C391.879395,201.598267 388.790741,203.189819 385.366821,204.896027 
	C382.894684,205.939880 380.757782,206.869080 378.268585,207.831055 
z"/>
<path fill="#3E64AE" opacity="1.000000" stroke="none" 
	d="
M353.619263,216.216675 
	C354.228210,216.398651 354.419098,216.608337 354.813995,216.915283 
	C350.497620,219.208939 346.009583,221.375809 341.248718,223.764984 
	C340.806061,223.982712 340.636169,223.978134 340.211121,223.959991 
	C339.560760,223.379791 339.165527,222.813156 338.506775,222.164124 
	C342.361664,220.432602 346.480072,218.783463 351.010773,217.084015 
	C351.423065,217.033722 351.516541,217.018616 351.516541,217.018616 
	C352.067322,216.770355 352.618073,216.522095 353.619263,216.216675 
z"/>
<path fill="#C15098" opacity="1.000000" stroke="none" 
	d="
M216.301376,195.183868 
	C216.923065,198.739944 217.391861,202.688232 217.840057,206.638840 
	C217.850113,206.727371 217.638351,206.900696 217.507309,206.928925 
	C217.375076,206.957428 217.214462,206.854324 216.959564,206.644119 
	C216.617233,202.845001 216.381638,199.210663 216.301376,195.183868 
z"/>
<path fill="#EC7556" opacity="1.000000" stroke="none" 
	d="
M432.894592,160.168518 
	C430.960022,161.301758 428.670715,162.500946 426.001831,163.585571 
	C427.928162,162.392151 430.234009,161.313324 432.894592,160.168518 
z"/>
<path fill="#EF5F6F" opacity="1.000000" stroke="none" 
	d="
M383.572723,194.259674 
	C385.277924,193.237671 387.341797,192.169601 389.802399,191.103973 
	C388.109863,192.142151 386.020630,193.177887 383.572723,194.259674 
z"/>
<path fill="#6894CB" opacity="1.000000" stroke="none" 
	d="
M244.532593,258.054871 
	C242.278946,258.431549 239.575897,258.721588 236.439789,259.023865 
	C235.220093,259.011597 234.433472,258.987122 233.253876,258.947815 
	C236.601669,258.611389 240.342438,258.289856 244.532593,258.054871 
z"/>
<path fill="#517EC0" opacity="1.000000" stroke="none" 
	d="
M313.031708,248.659790 
	C312.528351,248.993256 312.088409,248.991013 311.318237,248.991470 
	C311.454681,247.450104 311.921356,245.906036 312.672913,244.166824 
	C313.003601,245.422485 313.049377,246.873276 313.031708,248.659790 
z"/>
<path fill="#6894CB" opacity="1.000000" stroke="none" 
	d="
M249.374481,249.281311 
	C250.488342,248.962845 251.951782,248.703735 253.679443,248.614166 
	C252.537140,248.969360 251.130600,249.155014 249.374481,249.281311 
z"/>
<path fill="#C15098" opacity="1.000000" stroke="none" 
	d="
M329.771179,215.251099 
	C330.962463,215.019348 331.928802,214.985504 333.249512,214.969116 
	C331.677429,215.691437 329.750946,216.396317 327.464874,217.087387 
	C327.918945,216.532043 328.732605,215.990524 329.771179,215.251099 
z"/>
<path fill="#223267" opacity="1.000000" stroke="none" 
	d="
M446.011322,171.018173 
	C446.558563,170.438324 447.093781,169.843887 447.628967,169.249451 
	C447.797577,169.442184 447.966187,169.634903 448.134796,169.827621 
	C447.596771,170.175034 447.058746,170.522461 446.245605,170.924438 
	C445.970490,170.979019 445.999268,171.003601 446.011322,171.018173 
z"/>
<path fill="#EC7556" opacity="1.000000" stroke="none" 
	d="
M393.339081,189.771713 
	C393.932831,189.226578 394.857727,188.665344 396.147644,188.117615 
	C395.565186,188.672592 394.617706,189.214111 393.339081,189.771713 
z"/>
<path fill="#B43664" opacity="1.000000" stroke="none" 
	d="
M341.995239,95.801682 
	C340.594238,96.020256 339.217285,96.010452 337.427032,95.990036 
	C337.013733,95.979416 336.997498,95.495598 337.000183,95.253586 
	C338.404785,94.971085 339.806702,94.930611 341.615204,95.002075 
	C342.021759,95.114021 342.019318,95.573296 341.995239,95.801682 
z"/>
<path fill="#EC7556" opacity="1.000000" stroke="none" 
	d="
M425.410095,173.060455 
	C425.978241,172.456146 426.879822,171.789856 428.166748,171.127075 
	C427.615936,171.753204 426.679749,172.375839 425.410095,173.060455 
z"/>
<path fill="#517EC0" opacity="1.000000" stroke="none" 
	d="
M307.712891,240.331665 
	C308.741913,240.240646 310.070709,240.431396 311.730835,240.852249 
	C310.712372,240.926056 309.362518,240.769745 307.712891,240.331665 
z"/>
<path fill="#6894CB" opacity="1.000000" stroke="none" 
	d="
M223.008209,251.231140 
	C224.123093,251.131424 225.233337,251.232315 226.630859,251.502319 
	C225.874512,251.780121 224.830872,251.888840 223.399994,251.915298 
	C223.012772,251.833038 223.003555,251.431778 223.008209,251.231140 
z"/>
<path fill="#C15098" opacity="1.000000" stroke="none" 
	d="
M217.081345,189.384979 
	C217.253387,189.892899 217.289871,190.758301 217.116241,191.817795 
	C216.919373,191.255417 216.932571,190.498947 217.081345,189.384979 
z"/>
<path fill="#517EC0" opacity="1.000000" stroke="none" 
	d="
M280.397614,243.396484 
	C280.566223,243.192520 280.935211,243.051514 281.503113,242.903244 
	C281.334015,243.083801 280.965973,243.271606 280.397614,243.396484 
z"/>
<path fill="#EF5F6F" opacity="1.000000" stroke="none" 
	d="
M354.261780,207.158905 
	C354.492767,206.845291 355.057037,206.543350 355.951843,206.243530 
	C355.719940,206.553955 355.157532,206.862259 354.261780,207.158905 
z"/>
<path fill="#EC7556" opacity="1.000000" stroke="none" 
	d="
M398.408234,187.218628 
	C398.596344,186.901291 399.096497,186.562683 399.910095,186.209946 
	C399.722473,186.529678 399.221375,186.863525 398.408234,187.218628 
z"/>
<path fill="#EC7556" opacity="1.000000" stroke="none" 
	d="
M397.286316,187.880035 
	C397.231750,187.637192 397.480499,187.440369 397.997192,187.214050 
	C397.997925,187.378586 397.772736,187.625748 397.286316,187.880035 
z"/>
<path fill="#822746" opacity="1.000000" stroke="none" 
	d="
M325.971283,184.788376 
	C325.916077,184.925339 325.737549,184.958969 325.286621,184.997711 
	C325.224396,184.711151 325.502289,184.605225 325.971283,184.788376 
z"/>
<path fill="#517EC0" opacity="1.000000" stroke="none" 
	d="
M274.391907,244.770859 
	C274.431549,244.569901 274.754486,244.417709 275.350800,244.252350 
	C275.307861,244.432663 274.991547,244.626144 274.391907,244.770859 
z"/>
<path fill="#D73894" opacity="1.000000" stroke="none" 
	d="
M293.387939,162.134018 
	C293.182037,161.923950 293.300934,161.639801 293.675537,161.229660 
	C293.769989,161.385422 293.697174,161.704178 293.387939,162.134018 
z"/>
<path fill="#517EC0" opacity="1.000000" stroke="none" 
	d="
M273.706238,240.256653 
	C273.780457,240.528732 273.584869,240.622757 273.232483,240.504196 
	C273.139313,240.432236 273.500122,240.219223 273.706238,240.256653 
z"/>
<path fill="#E5814C" opacity="1.000000" stroke="none" 
	d="
M507.516418,119.512482 
	C507.537231,119.498116 507.495605,119.526848 507.516418,119.512482 
z"/>
<path fill="#517EC0" opacity="1.000000" stroke="none" 
	d="
M276.563110,239.885986 
	C276.632080,239.972107 276.334229,240.056458 276.257507,240.046722 
	C276.180786,240.037003 276.494110,239.799881 276.563110,239.885986 
z"/>
<path fill="#EF5F6F" opacity="1.000000" stroke="none" 
	d="
M352.313843,207.888351 
	C352.335022,207.681366 352.693787,207.472931 353.350769,207.168030 
	C353.316437,207.343353 352.983917,207.615128 352.313843,207.888351 
z"/>
<path fill="#822746" opacity="1.000000" stroke="none" 
	d="
M299.020630,149.704376 
	C298.708191,149.571320 298.706818,149.322983 298.999084,148.950409 
	C299.339203,149.072235 299.352203,149.326553 299.020630,149.704376 
z"/>
<path fill="#3E64AE" opacity="1.000000" stroke="none" 
	d="
M335.491150,223.019440 
	C335.442719,223.047653 335.477203,223.031662 335.478638,223.047043 
	C335.480072,223.062424 335.539581,222.991226 335.491150,223.019440 
z"/>
<path fill="#355DA9" opacity="1.000000" stroke="none" 
	d="
M351.509827,216.949646 
	C351.516541,217.018616 351.423065,217.033722 351.401398,217.042908 
	C351.379730,217.052094 351.503113,216.880692 351.509827,216.949646 
z"/>
<path fill="#CD4F9D" opacity="1.000000" stroke="none" 
	d="
M202.737793,206.771851 
	C199.952454,210.118484 199.728882,213.996445 199.991043,218.037689 
	C200.319656,223.103241 200.571869,228.173721 200.927658,233.621948 
	C193.379517,234.058884 186.244202,232.895645 180.291672,227.398773 
	C177.103104,224.454269 174.682083,217.917740 176.069107,213.846527 
	C176.176285,213.531952 176.487717,213.198563 176.432266,212.930054 
	C175.277847,207.340012 174.245590,201.792892 179.747284,197.650330 
	C178.808609,196.461349 177.822662,195.305862 176.947632,194.071762 
	C176.350693,193.229874 175.908676,192.278137 175.397385,191.375519 
	C176.547791,190.998138 178.013168,189.982239 178.788666,190.364792 
	C180.988556,191.450027 182.892136,193.127747 184.938141,194.534698 
	C190.776566,198.549530 196.627762,202.545792 202.737793,206.771851 
M183.542664,209.466858 
	C185.964890,207.318680 185.453033,206.504013 179.254501,204.410492 
	C180.985962,206.655563 181.973892,207.936554 183.542664,209.466858 
z"/>
<path fill="#EE479B" opacity="1.000000" stroke="none" 
	d="
M257.021240,109.443573 
	C258.704163,108.332787 260.238892,107.407326 261.885986,106.774071 
	C269.623535,103.799225 277.391937,100.904671 285.565857,97.977585 
	C285.814880,100.484932 285.661469,102.997200 285.471771,105.506729 
	C285.410339,106.319473 284.856293,107.409447 285.200806,107.890999 
	C289.970276,114.558044 286.501770,121.920441 286.803467,128.882172 
	C287.238312,138.917038 286.331848,149.010025 285.634094,159.558136 
	C283.024597,161.350662 280.352783,162.250992 278.610748,164.051117 
	C272.767029,170.089691 265.996063,174.464783 258.007324,176.997635 
	C257.671387,163.548050 257.442719,150.094238 256.914673,136.652206 
	C256.800568,133.747620 255.608719,130.885376 254.913284,128.003647 
	C254.491745,128.068527 254.070206,128.133423 253.648651,128.198303 
	C254.555695,123.293488 255.462723,118.388672 256.156036,113.225388 
	C256.269836,111.899124 256.597351,110.831329 257.021240,109.443573 
z"/>
<path fill="#ED4799" opacity="1.000000" stroke="none" 
	d="
M258.005096,177.397842 
	C265.996063,174.464783 272.767029,170.089691 278.610748,164.051117 
	C280.352783,162.250992 283.024597,161.350662 285.633362,160.018036 
	C287.865295,160.809875 289.734222,161.621735 291.791748,162.718491 
	C285.253998,175.906265 270.723755,183.918304 258.372620,181.162781 
	C257.997681,179.931946 258.000275,178.865005 258.005096,177.397842 
z"/>
<path fill="#F36F5C" opacity="1.000000" stroke="none" 
	d="
M403.405212,98.096313 
	C403.552124,100.727211 403.307892,103.283112 403.026764,106.225525 
	C405.293762,105.866066 407.669128,105.489426 410.044495,105.112785 
	C410.279053,105.625031 410.513641,106.137268 410.748199,106.649513 
	C408.003021,108.275307 405.257874,109.901093 403.111145,111.172470 
	C403.444946,115.073906 403.429047,118.386765 404.064667,121.569519 
	C405.289093,127.701134 405.795380,133.485962 404.346771,139.925415 
	C402.842438,146.612564 404.011627,153.901138 404.011627,161.162445 
	C400.826660,161.622604 396.331299,162.272095 391.434662,162.928757 
	C391.355621,144.065765 391.734619,125.196320 391.977142,106.325119 
	C392.107086,96.213943 392.918274,95.521057 403.405212,98.096313 
z"/>
<path fill="#EA5083" opacity="1.000000" stroke="none" 
	d="
M306.981934,96.477043 
	C313.025574,95.891792 319.078827,95.773293 325.504150,95.804062 
	C325.288055,96.739594 324.699890,97.525871 323.930786,98.554497 
	C319.815674,105.076126 315.859070,111.341522 311.963348,117.644577 
	C311.008179,119.190041 310.252106,120.858559 309.172638,122.720406 
	C308.291046,114.294807 307.641296,105.619293 306.981934,96.477043 
z"/>
<path fill="#EA5083" opacity="1.000000" stroke="none" 
	d="
M307.633179,125.126434 
	C307.506195,126.244987 307.048798,127.492699 306.338684,128.964615 
	C306.491547,127.877739 306.897186,126.566658 307.633179,125.126434 
z"/>
<path fill="#ED4799" opacity="1.000000" stroke="none" 
	d="
M291.992676,226.044739 
	C282.618896,228.045547 273.245148,230.046356 263.458832,232.071014 
	C261.599915,227.114151 260.153534,222.133438 258.792480,217.446518 
	C261.511444,215.163177 264.186157,212.916992 266.930725,210.326721 
	C270.741638,209.215851 274.482666,208.449051 278.523346,207.528076 
	C281.916504,207.277588 285.010010,207.181274 288.670044,207.442368 
	C293.629791,213.356537 291.493286,219.899719 291.992676,226.044739 
z"/>
<path fill="#87B1DD" opacity="1.000000" stroke="none" 
	d="
M209.985016,323.532471 
	C204.885117,322.812195 199.653107,322.017426 194.747238,320.294128 
	C191.531174,319.164398 190.641388,316.601990 192.003571,312.682831 
	C193.345444,308.822113 193.086975,304.356415 193.240082,300.145630 
	C193.378326,296.343933 193.022995,292.526825 193.065842,288.718567 
	C193.130325,282.985718 193.426910,277.254761 193.436371,271.522705 
	C193.438019,270.521698 192.630432,269.436493 191.994949,268.531830 
	C189.452881,264.912903 190.776321,260.917694 195.238770,260.124023 
	C199.446503,259.375671 203.782394,259.347900 208.517914,259.013245 
	C209.313065,280.370117 209.652237,301.716888 209.985016,323.532471 
z"/>
<path fill="#3E64AE" opacity="1.000000" stroke="none" 
	d="
M355.333984,216.963898 
	C355.546204,216.709351 356.051025,216.416809 356.858215,216.100449 
	C356.649292,216.359711 356.137970,216.642807 355.333984,216.963898 
z"/>
<path fill="#ED4992" opacity="1.000000" stroke="none" 
	d="
M292.396362,226.040802 
	C291.493286,219.899719 293.629791,213.356537 289.126251,207.470123 
	C289.811157,206.818008 290.606354,206.495514 291.706238,206.067993 
	C296.726379,205.316925 301.441864,204.670898 306.578796,204.015076 
	C311.303680,206.106354 311.614410,209.718597 310.529785,213.722473 
	C309.838654,216.273682 308.870758,218.749908 307.996521,221.647644 
	C302.910706,223.369324 297.855377,224.703110 292.396362,226.040802 
z"/>
<path fill="#608CC6" opacity="1.000000" stroke="none" 
	d="
M285.822388,241.908997 
	C285.777039,241.873688 285.626526,241.654800 285.626526,241.654800 
	C285.626526,241.654800 285.838348,241.737976 285.886780,241.794617 
	C285.935181,241.851242 285.867737,241.944290 285.822388,241.908997 
z"/>
<path fill="#C15098" opacity="1.000000" stroke="none" 
	d="
M183.252258,209.342209 
	C181.973892,207.936554 180.985962,206.655563 179.254501,204.410492 
	C185.453033,206.504013 185.964890,207.318680 183.252258,209.342209 
z"/>
</svg>